<svg width="22" height="20" viewBox="0 0 22 20" fill="none" xmlns="http://www.w3.org/2000/svg">
<path d="M20.7167 20C18.0889 20 15.5275 19.4674 13.0326 18.4022C10.5376 17.337 8.32741 15.9296 6.402 14.18C4.47659 12.4304 2.92844 10.4211 1.75756 8.15222C0.586667 5.88333 0.000814815 3.55482 0 1.16667C0 0.833334 0.122222 0.555556 0.366667 0.333333C0.611111 0.111111 0.916667 0 1.28333 0H6.23333C6.51852 0 6.77315 0.0833332 6.99722 0.25C7.2213 0.416667 7.3537 0.62963 7.39444 0.888889L8.18889 4.77778C8.22963 5.03704 8.22433 5.27333 8.173 5.48667C8.12167 5.7 8.00474 5.88963 7.82222 6.05556C6.1245 7.6311 5.76764 10.2423 7.41036 11.8751C7.63207 12.0955 7.86102 12.313 8.09722 12.5278C8.5057 12.8991 8.9276 13.2545 9.3629 13.594C11.0482 14.9081 13.4067 14.5898 14.988 13.1523L15.2167 12.9444C15.4 12.7778 15.6396 12.653 15.9353 12.57C16.2311 12.487 16.5212 12.4637 16.8056 12.5L21.0222 13.2778C21.3074 13.3333 21.5417 13.4585 21.725 13.6533C21.9083 13.8481 22 14.0748 22 14.3333V18.8333C22 19.1667 21.8778 19.4444 21.6333 19.6667C21.3889 19.8889 21.0833 20 20.7167 20Z" fill="#ED8166"/>
</svg>
