<svg width="30" height="30" viewBox="0 0 30 30" fill="none" xmlns="http://www.w3.org/2000/svg">
<path d="M12.6804 8.28442C13.6637 5.83317 14.1553 4.60754 15.0007 4.60754C15.8461 4.60754 16.3378 5.83317 17.321 8.28442L17.3668 8.39856C17.9223 9.7834 18.2 10.4758 18.7661 10.8967C19.3322 11.3175 20.0752 11.3841 21.5614 11.5172L21.8301 11.5412C24.2623 11.7591 25.4785 11.868 25.7387 12.6417C25.9989 13.4154 25.0957 14.2371 23.2894 15.8805L22.6866 16.429C21.7722 17.2608 21.315 17.6768 21.1019 18.222C21.0622 18.3237 21.0291 18.4278 21.003 18.5339C20.8629 19.1022 20.9968 19.7056 21.2646 20.9124L21.3479 21.2881C21.84 23.506 22.0861 24.615 21.6565 25.0933C21.4959 25.272 21.2873 25.4007 21.0555 25.464C20.4353 25.6332 19.5547 24.9156 17.7935 23.4805C16.637 22.5382 16.0588 22.067 15.3949 21.961C15.1338 21.9193 14.8677 21.9193 14.6065 21.961C13.9427 22.067 13.3644 22.5382 12.208 23.4805C10.4468 24.9156 9.56619 25.6332 8.94593 25.464C8.71416 25.4007 8.50552 25.272 8.34499 25.0933C7.9154 24.615 8.16144 23.506 8.65353 21.2881L8.73688 20.9124C9.00464 19.7056 9.13852 19.1022 8.99845 18.5339C8.97232 18.4278 8.93928 18.3237 8.89953 18.222C8.68644 17.6768 8.22924 17.2608 7.31486 16.429L6.71201 15.8805C4.90571 14.2371 4.00255 13.4154 4.26278 12.6417C4.523 11.868 5.73913 11.7591 8.1714 11.5412L8.44007 11.5172C9.92622 11.3841 10.6693 11.3175 11.2354 10.8967C11.8014 10.4758 12.0792 9.7834 12.6347 8.39856L12.6804 8.28442Z" stroke="#ED8166" stroke-width="2"/>
</svg>
